<svg width="41" height="41" viewBox="0 0 41 41" fill="none" xmlns="http://www.w3.org/2000/svg">
<path d="M24.6636 27.2907C21.7167 26.3298 22.5496 25.6251 25.3683 24.536C26.7136 24.0235 25.8808 22.9345 25.9449 22.1017C25.9449 21.7173 27.5464 21.7813 27.4183 20.2438C27.3542 19.1548 24.9839 17.6173 24.3433 16.9767C23.9589 16.5923 25.1121 15.5673 24.2792 14.6704C23.1902 13.4532 22.998 11.2751 22.3574 10.0579C22.3574 10.0579 22.8699 9.28915 22.4855 8.84071C19.1542 5.12509 6.79018 5.50946 3.58706 11.0188C0.0636202 17.2329 -0.000441909 25.7532 7.36675 30.3657C10.6339 32.4157 6.46987 39.7188 6.46987 39.7188H19.4746C19.4746 38.5017 18.0011 34.0173 20.5636 34.2095C22.7417 34.4017 25.4964 34.2735 25.2402 31.7751C25.1761 31.0063 25.1121 30.3657 25.6246 29.7251C26.1371 29.1485 26.9058 27.9954 24.6636 27.2907ZM27.6105 26.1376L39.7183 27.7391V24.536L27.6105 26.1376ZM37.4761 36.5798L38.7574 33.8251L27.6105 27.8032L37.4761 36.5798ZM38.7574 18.4501L37.4761 15.6954L27.6105 24.4079L38.7574 18.4501Z" fill="#468392"/>
</svg>
